<?xml version="1.0" encoding="UTF-8" standalone="no"?>
<!DOCTYPE svg PUBLIC "-//W3C//DTD SVG 1.1//EN" "http://www.w3.org/Graphics/SVG/1.1/DTD/svg11.dtd">
<svg width="100%" height="100%" viewBox="0 0 460 123" version="1.1" xmlns="http://www.w3.org/2000/svg" xmlns:xlink="http://www.w3.org/1999/xlink" xml:space="preserve" xmlns:serif="http://www.serif.com/" style="fill-rule:evenodd;clip-rule:evenodd;">
    <g id="path28" transform="matrix(1,0,0,1,3.55988,0)">
        <circle cx="61.5" cy="61.5" r="60.75" style="fill:rgb(138,101,35);"/>
    </g>
    <g id="path853" transform="matrix(1,0,0,1,3.55988,0)">
        <circle cx="61.5" cy="61.5" r="56.25" style="fill:rgb(104,159,65);"/>
    </g>
    <g id="path855" transform="matrix(1,0,0,1,3.55988,0)">
        <circle cx="61.5" cy="61.5" r="51" style="fill:rgb(122,176,66);"/>
    </g>
    <g id="path857" transform="matrix(1,0,0,1,3.55988,0)">
        <circle cx="61.5" cy="61.5" r="45.75" style="fill:rgb(143,199,63);"/>
    </g>
    <g id="path865" transform="matrix(1,0,0,1,3.55988,0)">
        <circle cx="61.5" cy="61.5" r="15" style="fill:rgb(249,238,183);"/>
    </g>
    <g id="path859" transform="matrix(1,0,0,1,3.55988,0)">
        <circle cx="61.5" cy="61.5" r="12.375" style="fill:rgb(223,228,153);"/>
    </g>
    <g id="Selection--2" serif:id="Selection #2" transform="matrix(1,0,0,1,3.55988,0)">
        <path d="M66.628,31.502C64.058,32.289 63.089,35.269 62.946,37.725C62.848,39.396 63.512,42.704 65.833,42.297C68.57,41.819 69.838,36.903 69.417,34.556C69.105,32.822 68.639,31.441 66.628,31.502ZM55.252,31.771C52.02,33.083 53.06,38.012 54.421,40.365C55.059,41.471 56.146,42.894 57.618,42.545C59.143,42.184 59.637,40.127 59.722,38.781C59.878,36.23 58.409,31.462 55.252,31.771ZM45.194,35.995C43.545,36.666 43.402,37.949 43.688,39.573C44.101,41.938 47.15,46.45 49.942,45.785C51.644,45.381 51.591,43.269 51.234,41.949C50.543,39.39 48.209,35.689 45.194,35.995ZM76.42,35.979C73.681,36.835 72.011,39.248 71.365,41.949C70.987,43.535 71.336,45.861 73.509,45.494C76.063,45.061 78.215,42.152 78.972,39.837C79.721,37.545 79.234,35.634 76.42,35.979ZM83.831,43.612C81.465,44.071 79.107,45.344 77.884,47.493C76.566,49.811 77.633,51.751 80.391,51.326C82.553,50.994 85.036,49.581 86.253,47.757C87.939,45.228 86.999,43.306 83.831,43.612ZM37.778,43.892C35.512,44.544 35.478,46.566 36.666,48.285C37.955,50.146 41.251,52.205 43.601,51.883C46.383,51.503 45.787,49.196 44.601,47.495C43.193,45.481 40.292,43.71 37.778,43.892ZM86.478,53.114C84.668,53.412 82.545,54.035 81.288,55.461C79.051,58.003 82.077,59.473 84.361,59.613C86.338,59.735 89.58,58.874 90.805,57.237C93.164,54.093 88.836,52.913 86.478,53.114ZM35.131,53.644C34.517,53.742 33.864,53.837 33.279,54.051C31.129,54.837 30.984,56.717 32.54,58.23C33.729,59.386 36.142,60.046 37.778,60.141C40.136,60.279 44.125,58.861 41.674,55.952C40.221,54.225 37.31,53.531 35.131,53.644ZM83.567,62.884C80.859,63.42 79.26,65.258 81.727,67.502C83.043,68.698 86.044,69.511 87.801,69.326C90.678,69.02 93.111,67.021 90.157,64.529C88.521,63.151 85.644,62.678 83.567,62.884ZM37.513,63.41C35.698,63.711 33.538,64.218 32.334,65.733C30.412,68.154 33.173,69.825 35.396,69.923C37.569,70.018 41.142,68.975 42.315,67.024C44.125,64.014 39.464,63.23 37.513,63.41ZM79.597,71.087C77.056,71.684 77.193,73.292 78.421,75.214C79.634,77.112 82.789,79.335 85.155,79.113C87.677,78.881 87.693,76.365 86.531,74.686C85.096,72.61 82.145,70.992 79.597,71.087ZM43.072,71.607C40.607,72.03 38.051,73.352 36.64,75.478C35.084,77.819 36.338,79.749 39.366,79.39C41.51,79.134 44.003,77.547 45.155,75.742C46.616,73.45 45.988,71.552 43.072,71.607ZM73.255,77.186C71.553,77.898 71.537,79.44 71.963,81.022C72.564,83.255 75.216,87.614 78.003,86.97C79.829,86.55 79.766,84.298 79.395,82.87C78.718,80.251 76.238,76.969 73.255,77.186ZM49.953,77.439C47.198,77.983 45.03,80.52 44.247,83.134C43.609,85.264 43.974,87.49 46.777,87.036C49.318,86.621 51.279,83.334 51.832,81.022C52.229,79.356 51.973,77.579 49.953,77.439ZM65.836,80.383C62.459,81.278 63.332,86.914 64.65,89.206C65.278,90.294 66.305,91.413 67.686,91.247C69.69,91.004 70.124,88.456 70.058,86.83C69.962,84.446 68.583,80.575 65.836,80.383ZM57.629,80.652C54.715,81.362 53.381,85.465 53.775,88.15C53.981,89.549 54.513,91.582 56.305,91.497C59.439,91.352 60.556,86.12 60.159,83.662C59.892,82.001 59.484,80.839 57.629,80.652Z" style="fill-rule:nonzero;stroke:black;stroke-width:0.26px;"/>
    </g>
    <g transform="matrix(5.19055,0,0,5.19055,-942.515,-176.739)">
        <g transform="matrix(12,0,0,12,269.37,49.8239)">
        </g>
        <text x="211.59px" y="49.824px" style="font-family:'VarelaRound-Regular', 'Varela Round';font-size:12px;">Kiwi<tspan x="234.99px 242.178px " y="49.824px 49.824px ">Ti</tspan>ck<tspan x="257.994px " y="49.824px ">e</tspan>t</text>
    </g>
</svg>
