<?xml version="1.0" encoding="UTF-8" standalone="no"?>
<svg
   xmlns:dc="http://purl.org/dc/elements/1.1/"
   xmlns:cc="http://creativecommons.org/ns#"
   xmlns:rdf="http://www.w3.org/1999/02/22-rdf-syntax-ns#"
   xmlns:svg="http://www.w3.org/2000/svg"
   xmlns="http://www.w3.org/2000/svg"
   xmlns:sodipodi="http://sodipodi.sourceforge.net/DTD/sodipodi-0.dtd"
   xmlns:inkscape="http://www.inkscape.org/namespaces/inkscape"
   inkscape:export-ydpi="113.77778"
   inkscape:export-xdpi="113.77778"
   inkscape:export-filename="C:\Users\jorda\Desktop\KiwiLoader\kiwiticket-192.png"
   inkscape:version="1.0 (4035a4fb49, 2020-05-01)"
   sodipodi:docname="seeds.svg"
   id="svg20"
   version="1.1"
   viewBox="0 0 512 512"
   height="1.70667in"
   width="1.70667in">
  <metadata
     id="metadata26">
    <rdf:RDF>
      <cc:Work
         rdf:about="">
        <dc:format>image/svg+xml</dc:format>
        <dc:type
           rdf:resource="http://purl.org/dc/dcmitype/StillImage" />
        <dc:title></dc:title>
      </cc:Work>
    </rdf:RDF>
  </metadata>
  <defs
     id="defs24" />
  <sodipodi:namedview
     inkscape:current-layer="svg20"
     inkscape:window-maximized="0"
     inkscape:window-y="0"
     inkscape:window-x="1706"
     inkscape:cy="71.961377"
     inkscape:cx="55.472708"
     inkscape:zoom="4.3503554"
     showgrid="false"
     id="namedview22"
     inkscape:window-height="1367"
     inkscape:window-width="1716"
     inkscape:pageshadow="2"
     inkscape:pageopacity="0"
     guidetolerance="10"
     gridtolerance="10"
     objecttolerance="10"
     borderopacity="1"
     bordercolor="#666666"
     pagecolor="#ffffff" />
  <circle
     r="253.12448"
     cy="256.24948"
     cx="256.24948"
     id="path28"
     style="fill:#8a6523;fill-opacity:1;fill-rule:evenodd;stroke-width:3.13341" />
  <circle
     r="234.37453"
     cy="256.24948"
     cx="256.24948"
     id="path853"
     style="fill:#689f41;fill-opacity:1;stroke-width:2.99462" />
  <circle
     r="212.49957"
     cy="256.24948"
     cx="256.24948"
     id="path855"
     style="fill:#7ab042;fill-opacity:1;stroke-width:2.76393" />
  <circle
     r="190.62462"
     cy="256.24948"
     cx="256.24948"
     id="path857"
     style="fill:#8fc73f;fill-opacity:1;stroke-width:2.95432" />
  <circle
     r="62.499874"
     cy="256.24948"
     cx="256.24948"
     id="path865"
     style="fill:#f9eeb7;fill-opacity:1;stroke-width:3.08973" />
  <circle
     r="51.562397"
     cy="256.24948"
     cx="256.24948"
     id="path859"
     style="fill:#dfe499;fill-opacity:1;stroke-width:3.33149" />
  <path
     style="fill:#303030;fill-opacity:1;stroke:none"
     d="m 277.61413,131.25777 c -10.70826,3.27806 -14.74452,15.69735 -15.34006,25.92758 -0.40802,6.96317 2.36003,20.74647 12.03164,19.05244 11.40302,-1.99105 16.68546,-22.47351 14.932,-32.25273 -1.30131,-7.22717 -3.24226,-12.9803 -11.62358,-12.72729 z m -47.39862,1.12201 c -13.46527,5.46714 -9.13124,26.0046 -3.46281,35.80582 2.65776,4.60912 7.1903,10.53825 13.3219,9.08621 6.35216,-1.50703 8.41441,-10.07623 8.76731,-15.68635 0.65066,-10.62625 -5.46991,-30.4927 -18.6264,-29.20568 z m -41.90664,17.60041 c -6.87048,2.79407 -7.466,8.14018 -6.27497,14.90534 1.72039,9.85623 14.42471,28.65566 26.05932,25.8836 7.09103,-1.68304 6.87047,-10.48324 5.38169,-15.98337 -2.87832,-10.65924 -12.60508,-26.08161 -25.16604,-24.80557 z m 130.10909,-0.0659 c -11.41404,3.56407 -18.37276,13.6183 -21.0636,24.87157 -1.57701,6.61114 -0.1213,16.30236 8.93273,14.77333 10.64208,-1.80404 19.6079,-13.92631 22.76192,-23.57353 3.12095,-9.54821 1.09179,-17.5124 -10.63105,-16.07137 z m 30.87859,31.80172 c -9.85911,1.91405 -19.68511,7.21617 -24.78006,16.17037 -5.49198,9.65823 -1.04768,17.74341 10.44356,15.97237 9.00994,-1.38602 19.35425,-7.27117 24.42716,-14.87235 7.02489,-10.53823 3.10992,-18.54642 -10.09066,-17.27039 z m -191.88832,1.16603 c -9.44002,2.71707 -9.58338,11.14326 -4.63178,18.30443 5.37066,7.75518 19.1006,16.33538 28.89352,14.99333 11.5905,-1.58403 9.10919,-11.19825 4.16862,-18.28242 -5.86694,-8.39319 -17.9537,-15.77437 -28.43036,-15.01534 z m 202.91637,38.42388 c -7.54319,1.24302 -16.3877,3.83909 -21.62603,9.77923 -9.31871,10.59324 3.28636,16.72038 12.80359,17.3034 8.23795,0.50601 21.74733,-3.08007 26.85331,-9.90023 9.82602,-13.10131 -8.20486,-18.01841 -18.03087,-17.1824 z m -213.94442,2.21105 c -2.55852,0.40701 -5.28245,0.80303 -7.71965,1.69404 -8.95478,3.27809 -9.56132,11.11027 -3.07683,17.4134 4.95158,4.81812 15.00918,7.56818 21.82453,7.96419 9.82601,0.572 26.44531,-5.33512 16.23332,-17.4574 -6.05441,-7.19417 -18.18529,-10.08724 -27.26137,-9.61423 z m 201.81355,38.5009 c -11.2817,2.23304 -17.94266,9.88922 -7.6645,19.23944 5.48094,4.9831 17.98676,8.37118 25.3094,7.60117 11.98752,-1.27603 22.12231,-9.60322 9.81497,-19.98747 -6.81534,-5.74212 -18.80284,-7.71118 -27.45987,-6.85314 z m -191.8883,2.18904 c -7.56525,1.25404 -16.56415,3.36607 -21.58191,9.68023 -8.00637,10.08722 3.49589,17.05038 12.75946,17.4574 9.05405,0.396 23.94193,-3.94909 28.82736,-12.07828 7.5432,-12.54029 -11.87723,-15.80737 -20.00491,-15.05935 z m 175.34621,31.98872 c -10.58695,2.48607 -10.01348,9.18521 -4.89647,17.19341 5.05086,7.90917 18.1963,17.17139 28.0554,16.24736 10.50975,-0.96802 10.57592,-11.45124 5.73459,-18.44741 -5.97721,-8.6462 -18.2735,-15.38937 -28.89352,-14.99336 z m -152.18728,2.16707 c -10.26713,1.76004 -20.92023,7.27116 -26.79819,16.12637 -6.4845,9.75722 -1.25719,17.79841 11.35892,16.30236 8.93272,-1.06702 19.32115,-7.67816 24.11835,-15.20234 6.0875,-9.54821 3.47383,-17.4574 -8.67908,-17.22639 z m 125.76404,23.24352 c -7.09104,2.97007 -7.15721,9.39422 -5.3817,15.98337 2.50337,9.30622 13.55349,27.46763 25.16605,24.78357 7.60936,-1.74903 7.34468,-11.13224 5.80075,-17.08339 -2.82317,-10.91224 -13.15648,-24.58557 -25.5851,-23.68355 z m -97.09107,1.05604 c -11.48022,2.26605 -20.51221,12.83729 -23.7765,23.72753 -2.65778,8.87721 -1.1359,18.15042 10.54282,16.25838 10.58694,-1.72704 18.75874,-15.42235 21.0636,-25.05858 1.65422,-6.94115 0.58449,-14.34432 -7.82992,-14.92733 z m 66.17941,12.26528 c -14.07181,3.72908 -10.43255,27.21461 -4.94057,36.76284 2.61364,4.53211 6.89253,9.19622 12.64919,8.5032 8.34824,-1.01202 10.15684,-11.62727 9.88114,-18.40343 -0.39701,-9.93322 -6.14263,-26.05959 -17.58976,-26.86261 z m -34.19803,1.12202 c -12.14189,2.95907 -17.70004,20.05346 -16.05686,31.24073 0.86019,5.83012 3.07682,14.30031 10.54282,13.9483 13.05723,-0.605 17.71109,-22.4075 16.05687,-32.64875 -1.11383,-6.91915 -2.81215,-11.75927 -10.54283,-12.54028 z"
     stroke-width="1.10141"
     stroke="black"
     fill="none"
     id="Selection #2" />
</svg>
